<?xml version="1.0" standalone="no"?>
<!DOCTYPE svg PUBLIC "-//W3C//DTD SVG 20010904//EN"
 "http://www.w3.org/TR/2001/REC-SVG-20010904/DTD/svg10.dtd">
<svg version="1.0" xmlns="http://www.w3.org/2000/svg"
 width="260.000000pt" height="260.000000pt" viewBox="0 0 260.000000 260.000000"
 preserveAspectRatio="xMidYMid meet">
<metadata>
Created by potrace 1.11, written by Peter Selinger 2001-2013
</metadata>
<g transform="translate(0.000000,260.000000) scale(0.100000,-0.100000)"
fill="#000000" stroke="none">
<path d="M1170 2584 c-376 -48 -691 -229 -906 -520 -110 -147 -195 -340 -231
-521 -24 -120 -24 -366 0 -486 103 -515 509 -921 1024 -1024 120 -24 366 -24
486 0 515 103 921 509 1024 1024 24 120 24 366 0 486 -102 513 -511 924 -1019
1022 -82 16 -311 27 -378 19z m494 -304 c26 -10 39 -28 50 -72 6 -26 5 -26
-57 -33 -181 -18 -407 -49 -527 -71 -123 -23 -402 -83 -458 -100 -22 -6 -23
-5 -20 42 3 48 4 50 55 77 162 87 846 199 957 157z m95 -315 c10 -56 24 -83
103 -202 50 -76 113 -168 140 -204 62 -85 63 -110 6 -142 -86 -49 -292 -104
-633 -168 -450 -84 -713 -101 -777 -49 l-22 18 27 98 c15 55 43 166 63 247 34
141 35 151 24 218 -7 39 -10 72 -9 73 9 8 315 77 441 100 76 14 206 35 290 45
195 26 212 27 279 29 l57 2 11 -65z m-590 -1315 c19 -5 50 -24 68 -42 40 -38
46 -95 14 -127 -36 -36 -87 -43 -152 -21 -49 17 -86 20 -223 20 -132 0 -176 4
-224 19 -73 22 -117 52 -138 93 -15 29 -15 31 2 23 49 -20 108 -26 204 -23 84
4 123 11 195 36 96 33 189 41 254 22z m507 -21 c132 -46 303 -52 397 -14 26
11 21 -10 -13 -48 -58 -67 -110 -80 -335 -88 -150 -4 -211 -10 -243 -23 -112
-43 -209 61 -134 144 60 68 184 79 328 29z"/>
<path d="M1145 1945 c-71 -13 -157 -30 -190 -38 l-60 -15 51 -1 c79 -2 276
-38 437 -80 164 -43 157 -46 157 44 0 42 -4 55 -17 59 -73 22 -212 56 -228 55
-11 0 -78 -11 -150 -24z"/>
</g>
</svg>
